<mxfile host="Electron" modified="2024-02-05T08:27:17.721Z" agent="Mozilla/5.0 (Windows NT 10.0; Win64; x64) AppleWebKit/537.36 (KHTML, like Gecko) draw.io/23.0.2 Chrome/120.0.6099.109 Electron/28.1.0 Safari/537.36" etag="fprAGlwDZmgFXGhj6TJA" version="23.0.2" type="device">
  <diagram name="1 oldal" id="bZX144X6xeTu_wqj5VR3">
    <mxGraphModel dx="2072" dy="1404" grid="1" gridSize="10" guides="1" tooltips="1" connect="1" arrows="1" fold="1" page="1" pageScale="1" pageWidth="827" pageHeight="1169" math="0" shadow="0">
      <root>
        <mxCell id="0" />
        <mxCell id="1" parent="0" />
        <mxCell id="324iuaGw0Lw1Wku1F5cz-2" value="Common" style="shape=module;align=left;spacingLeft=20;align=center;verticalAlign=top;whiteSpace=wrap;html=1;" vertex="1" parent="1">
          <mxGeometry x="102.5" width="100" height="50" as="geometry" />
        </mxCell>
        <mxCell id="324iuaGw0Lw1Wku1F5cz-56" value="" style="edgeStyle=orthogonalEdgeStyle;rounded=0;orthogonalLoop=1;jettySize=auto;html=1;shape=flexArrow;elbow=vertical;" edge="1" parent="1" source="324iuaGw0Lw1Wku1F5cz-3" target="324iuaGw0Lw1Wku1F5cz-2">
          <mxGeometry relative="1" as="geometry" />
        </mxCell>
        <mxCell id="324iuaGw0Lw1Wku1F5cz-3" value="Measurables" style="shape=module;align=left;spacingLeft=20;align=center;verticalAlign=top;whiteSpace=wrap;html=1;" vertex="1" parent="1">
          <mxGeometry x="202.5" y="110" width="100" height="50" as="geometry" />
        </mxCell>
        <mxCell id="324iuaGw0Lw1Wku1F5cz-58" value="" style="edgeStyle=orthogonalEdgeStyle;rounded=0;orthogonalLoop=1;jettySize=auto;html=1;shape=flexArrow;" edge="1" parent="1" source="324iuaGw0Lw1Wku1F5cz-5" target="324iuaGw0Lw1Wku1F5cz-3">
          <mxGeometry relative="1" as="geometry" />
        </mxCell>
        <mxCell id="324iuaGw0Lw1Wku1F5cz-5" value="BaseMeasurements" style="shape=module;align=left;spacingLeft=20;align=center;verticalAlign=top;whiteSpace=wrap;html=1;" vertex="1" parent="1">
          <mxGeometry x="290" y="230" width="140" height="50" as="geometry" />
        </mxCell>
        <mxCell id="324iuaGw0Lw1Wku1F5cz-61" value="" style="edgeStyle=orthogonalEdgeStyle;rounded=0;orthogonalLoop=1;jettySize=auto;html=1;shape=flexArrow;" edge="1" parent="1" source="324iuaGw0Lw1Wku1F5cz-8" target="324iuaGw0Lw1Wku1F5cz-3">
          <mxGeometry relative="1" as="geometry" />
        </mxCell>
        <mxCell id="324iuaGw0Lw1Wku1F5cz-8" value="Quantifiables" style="shape=module;align=left;spacingLeft=20;align=center;verticalAlign=top;whiteSpace=wrap;html=1;" vertex="1" parent="1">
          <mxGeometry x="130" y="230" width="105" height="50" as="geometry" />
        </mxCell>
        <mxCell id="324iuaGw0Lw1Wku1F5cz-10" value="BaseMeasures" style="shape=module;align=left;spacingLeft=20;align=center;verticalAlign=top;whiteSpace=wrap;html=1;" vertex="1" parent="1">
          <mxGeometry x="115" y="440" width="120" height="50" as="geometry" />
        </mxCell>
        <mxCell id="324iuaGw0Lw1Wku1F5cz-12" value="BaseSpreads" style="shape=module;align=left;spacingLeft=20;align=center;verticalAlign=top;whiteSpace=wrap;html=1;" vertex="1" parent="1">
          <mxGeometry x="370" y="750" width="110" height="50" as="geometry" />
        </mxCell>
        <mxCell id="324iuaGw0Lw1Wku1F5cz-14" value="BaseRates" style="shape=module;align=left;spacingLeft=20;align=center;verticalAlign=top;whiteSpace=wrap;html=1;" vertex="1" parent="1">
          <mxGeometry x="370" y="540" width="100" height="50" as="geometry" />
        </mxCell>
        <mxCell id="324iuaGw0Lw1Wku1F5cz-16" value="BaseShapes" style="shape=module;align=left;spacingLeft=20;align=center;verticalAlign=top;whiteSpace=wrap;html=1;" vertex="1" parent="1">
          <mxGeometry x="500" y="870" width="100" height="50" as="geometry" />
        </mxCell>
        <mxCell id="324iuaGw0Lw1Wku1F5cz-18" value="Measures" style="shape=module;align=left;spacingLeft=20;align=center;verticalAlign=top;whiteSpace=wrap;html=1;" vertex="1" parent="1">
          <mxGeometry x="350" y="450" width="100" height="50" as="geometry" />
        </mxCell>
        <mxCell id="324iuaGw0Lw1Wku1F5cz-21" value="RateComponents" style="shape=module;align=left;spacingLeft=20;align=center;verticalAlign=top;whiteSpace=wrap;html=1;" vertex="1" parent="1">
          <mxGeometry x="475" y="460" width="130" height="50" as="geometry" />
        </mxCell>
        <mxCell id="324iuaGw0Lw1Wku1F5cz-60" value="" style="edgeStyle=orthogonalEdgeStyle;rounded=0;orthogonalLoop=1;jettySize=auto;html=1;shape=flexArrow;" edge="1" parent="1" source="324iuaGw0Lw1Wku1F5cz-23" target="324iuaGw0Lw1Wku1F5cz-5">
          <mxGeometry relative="1" as="geometry" />
        </mxCell>
        <mxCell id="324iuaGw0Lw1Wku1F5cz-23" value="Measurements" style="shape=module;align=left;spacingLeft=20;align=center;verticalAlign=top;whiteSpace=wrap;html=1;" vertex="1" parent="1">
          <mxGeometry x="390" y="350" width="120" height="50" as="geometry" />
        </mxCell>
        <mxCell id="324iuaGw0Lw1Wku1F5cz-25" value="Shapes" style="shape=module;align=left;spacingLeft=20;align=center;verticalAlign=top;whiteSpace=wrap;html=1;" vertex="1" parent="1">
          <mxGeometry x="610" y="930" width="100" height="50" as="geometry" />
        </mxCell>
        <mxCell id="324iuaGw0Lw1Wku1F5cz-29" value="Spreads" style="shape=module;align=left;spacingLeft=20;align=center;verticalAlign=top;whiteSpace=wrap;html=1;" vertex="1" parent="1">
          <mxGeometry x="500" y="810" width="100" height="50" as="geometry" />
        </mxCell>
        <mxCell id="324iuaGw0Lw1Wku1F5cz-27" value="ComplexShapes" style="shape=module;align=left;spacingLeft=20;align=center;verticalAlign=top;whiteSpace=wrap;html=1;" vertex="1" parent="1">
          <mxGeometry x="610" y="1130" width="120" height="50" as="geometry" />
        </mxCell>
        <mxCell id="324iuaGw0Lw1Wku1F5cz-33" value="PlaneShapes" style="shape=module;align=left;spacingLeft=20;align=center;verticalAlign=top;whiteSpace=wrap;html=1;" vertex="1" parent="1">
          <mxGeometry x="720" y="990" width="100" height="50" as="geometry" />
        </mxCell>
        <mxCell id="324iuaGw0Lw1Wku1F5cz-35" value="DryBodies" style="shape=module;align=left;spacingLeft=20;align=center;verticalAlign=top;whiteSpace=wrap;html=1;" vertex="1" parent="1">
          <mxGeometry x="720" y="1050" width="100" height="50" as="geometry" />
        </mxCell>
        <mxCell id="324iuaGw0Lw1Wku1F5cz-37" value="Sections" style="shape=module;align=left;spacingLeft=20;align=center;verticalAlign=top;whiteSpace=wrap;html=1;" vertex="1" parent="1">
          <mxGeometry x="740" y="1190" width="100" height="50" as="geometry" />
        </mxCell>
        <mxCell id="324iuaGw0Lw1Wku1F5cz-39" value="ComplexDryBodies" style="shape=module;align=left;spacingLeft=20;align=center;verticalAlign=top;whiteSpace=wrap;html=1;" vertex="1" parent="1">
          <mxGeometry x="740" y="1250" width="140" height="50" as="geometry" />
        </mxCell>
        <mxCell id="324iuaGw0Lw1Wku1F5cz-41" value="Masses" style="shape=module;align=left;spacingLeft=20;align=center;verticalAlign=top;whiteSpace=wrap;html=1;" vertex="1" parent="1">
          <mxGeometry x="375" y="950" width="100" height="50" as="geometry" />
        </mxCell>
        <mxCell id="324iuaGw0Lw1Wku1F5cz-43" value="Rates" style="shape=module;align=left;spacingLeft=20;align=center;verticalAlign=top;whiteSpace=wrap;html=1;" vertex="1" parent="1">
          <mxGeometry x="480" y="605" width="100" height="50" as="geometry" />
        </mxCell>
        <mxCell id="324iuaGw0Lw1Wku1F5cz-47" value="Proportions" style="shape=module;align=left;spacingLeft=20;align=center;verticalAlign=top;whiteSpace=wrap;html=1;" vertex="1" parent="1">
          <mxGeometry x="480" y="670" width="100" height="50" as="geometry" />
        </mxCell>
      </root>
    </mxGraphModel>
  </diagram>
</mxfile>
